<svg width="294" height="187" viewBox="0 0 294 187" fill="none" xmlns="http://www.w3.org/2000/svg">
<rect width="294.004" height="186.054" fill="url(#paint0_linear_715_1455)"/>
<rect x="24.1644" y="24.1591" width="40.2801" height="32.2241" rx="6.0411" fill="#EEC076"/>
<path d="M202.089 43.1472V29.9666H210.971V32.2642H204.876V35.4049H210.514V37.7025H204.876V40.8496H210.997V43.1472H202.089ZM226.023 29.9666V43.1472H223.616L217.882 34.8514H217.785V43.1472H214.999V29.9666H217.444L223.134 38.256H223.249V29.9666H226.023ZM229.996 43.1472V41.4932L236.574 32.2642H229.984V29.9666H240.075V31.6207L233.491 40.8496H240.088V43.1472H229.996ZM244.038 43.1472V29.9666H252.92V32.2642H246.825V35.4049H252.463V37.7025H246.825V40.8496H252.946V43.1472H244.038ZM256.948 43.1472V29.9666H262.148C263.143 29.9666 263.993 30.1447 264.697 30.5008C265.404 30.8526 265.943 31.3525 266.312 32.0004C266.685 32.644 266.872 33.4012 266.872 34.2722C266.872 35.1475 266.683 35.9005 266.305 36.5312C265.928 37.1576 265.381 37.6382 264.664 37.9728C263.952 38.3075 263.09 38.4748 262.077 38.4748H258.595V36.2351H261.627C262.159 36.2351 262.601 36.1622 262.952 36.0163C263.304 35.8704 263.566 35.6516 263.738 35.3599C263.913 35.0681 264.001 34.7056 264.001 34.2722C264.001 33.8346 263.913 33.4656 263.738 33.1653C263.566 32.8649 263.302 32.6375 262.946 32.4831C262.594 32.3243 262.15 32.2449 261.614 32.2449H259.734V43.1472H256.948ZM264.066 37.149L267.342 43.1472H264.265L261.06 37.149H264.066Z" fill="white"/>
<path d="M61.8195 56.374H26.7754C25.3361 56.374 24.1644 55.1709 24.1644 53.6851V26.8452C24.1644 25.3675 25.3361 24.1644 26.7754 24.1644H61.8116C63.2586 24.1644 64.4304 25.3675 64.4304 26.8452V53.6851C64.4305 55.1709 63.2587 56.374 61.8195 56.374Z" fill="#FFC738"/>
<path d="M61.8195 24.1646H44.2974V56.3742H61.8194C63.2665 56.3742 64.4304 55.1711 64.4304 53.6934V26.8454C64.4305 25.3677 63.2587 24.1646 61.8195 24.1646Z" fill="#FFB42E"/>
<path d="M64.4305 40.8224V39.7162H50.361V34.8311L53.9944 31.1006H64.4305C64.4305 30.7211 64.3912 30.3496 64.3283 29.9944H53.7663C53.6247 29.9944 53.4832 30.059 53.3888 30.1639L49.5981 34.0479H44.8401V24.1644H43.7627V34.0397H39.0597L35.2769 30.1557C35.1747 30.0508 35.0331 29.9862 34.8915 29.9862H24.2745C24.2115 30.3496 24.1723 30.721 24.1723 31.0924H34.6713L38.234 34.7502V39.6999H24.1644V40.8061H38.234V45.7558L34.6713 49.4379H24.1723C24.1723 49.8174 24.2116 50.1888 24.2745 50.5441H34.8994C35.041 50.5441 35.1825 50.4795 35.2848 50.3745L39.0676 46.4906H43.7706V56.3658H44.848V46.4907H49.606L53.3967 50.3747C53.491 50.4796 53.6326 50.5442 53.7742 50.5442H64.3362C64.3991 50.1808 64.4384 49.8094 64.4384 49.438H53.9865L50.3531 45.7075V40.8224H64.4305ZM49.2835 45.3845H39.3114V35.1459H49.2757V45.3845H49.2835Z" fill="#C66D4E"/>
<path d="M64.4304 40.8225V39.7163H50.3608V34.8312L53.9942 31.1007H64.4304C64.4304 30.7212 64.391 30.3498 64.3282 29.9945H53.7662C53.6246 29.9945 53.483 30.0591 53.3887 30.1641L49.598 34.048H44.84V24.1646H44.2974V35.146H49.2835V45.3846H44.2974V56.3661H44.84V46.4909H49.598L53.3887 50.3748C53.483 50.4797 53.6246 50.5443 53.7662 50.5443H64.3282C64.3911 50.181 64.4304 49.8176 64.4304 49.4381H53.9864L50.353 45.7076V40.8225H64.4304Z" fill="#AF5A35"/>
<path d="M25.0511 132.869V125.546H29.4704V126.333H25.9378V128.807H29.2416V129.594H25.9378V132.082H29.5276V132.869H25.0511ZM32.5045 125.546L34.3924 128.593H34.4496L36.3374 125.546H37.3814L35.0788 129.208L37.3814 132.869H36.3374L34.4496 129.88H34.3924L32.5045 132.869H31.4605L33.8203 129.208L31.4605 125.546H32.5045ZM39.5423 132.869V125.546H43.9615V126.333H40.429V128.807H43.7327V129.594H40.429V132.082H44.0188V132.869H39.5423ZM52.459 127.835H51.5723C51.5198 127.58 51.4281 127.356 51.297 127.162C51.1682 126.969 51.0109 126.807 50.825 126.676C50.6415 126.543 50.4377 126.443 50.2136 126.376C49.9895 126.309 49.7559 126.276 49.5128 126.276C49.0694 126.276 48.6678 126.388 48.3079 126.612C47.9503 126.836 47.6655 127.166 47.4533 127.602C47.2436 128.038 47.1387 128.574 47.1387 129.208C47.1387 129.842 47.2436 130.377 47.4533 130.813C47.6655 131.249 47.9503 131.579 48.3079 131.803C48.6678 132.027 49.0694 132.14 49.5128 132.14C49.7559 132.14 49.9895 132.106 50.2136 132.039C50.4377 131.973 50.6415 131.874 50.825 131.743C51.0109 131.609 51.1682 131.446 51.297 131.253C51.4281 131.057 51.5198 130.833 51.5723 130.581H52.459C52.3922 130.955 52.2707 131.29 52.0943 131.585C51.9179 131.881 51.6986 132.132 51.4364 132.34C51.1742 132.545 50.8798 132.701 50.5533 132.808C50.2291 132.915 49.8823 132.969 49.5128 132.969C48.8883 132.969 48.3329 132.816 47.8466 132.511C47.3604 132.206 46.9778 131.772 46.6989 131.21C46.42 130.647 46.2806 129.98 46.2806 129.208C46.2806 128.435 46.42 127.768 46.6989 127.205C46.9778 126.643 47.3604 126.209 47.8466 125.904C48.3329 125.599 48.8883 125.446 49.5128 125.446C49.8823 125.446 50.2291 125.5 50.5533 125.607C50.8798 125.714 51.1742 125.872 51.4364 126.079C51.6986 126.284 51.9179 126.534 52.0943 126.83C52.2707 127.123 52.3922 127.458 52.459 127.835ZM59.7041 125.546H60.5908V130.395C60.5908 130.895 60.4728 131.342 60.2369 131.735C60.0033 132.126 59.6731 132.435 59.2465 132.662C58.8198 132.886 58.3192 132.998 57.7448 132.998C57.1703 132.998 56.6697 132.886 56.2431 132.662C55.8164 132.435 55.4851 132.126 55.2491 131.735C55.0155 131.342 54.8987 130.895 54.8987 130.395V125.546H55.7854V130.323C55.7854 130.681 55.8641 130.999 56.0214 131.278C56.1787 131.554 56.4028 131.772 56.6936 131.932C56.9868 132.089 57.3372 132.168 57.7448 132.168C58.1524 132.168 58.5028 132.089 58.796 131.932C59.0891 131.772 59.3132 131.554 59.4681 131.278C59.6255 130.999 59.7041 130.681 59.7041 130.323V125.546ZM62.968 126.333V125.546H68.4599V126.333H66.1573V132.869H65.2706V126.333H62.968ZM71.722 125.546V132.869H70.8352V125.546H71.722ZM74.807 125.546L76.9809 131.71H77.0667L79.2406 125.546H80.1702L77.4815 132.869H76.5662L73.8774 125.546H74.807ZM82.3177 132.869V125.546H86.7369V126.333H83.2044V128.807H86.5081V129.594H83.2044V132.082H86.7941V132.869H82.3177ZM99.073 127.835H98.1863C98.1338 127.58 98.042 127.356 97.9109 127.162C97.7822 126.969 97.6249 126.807 97.439 126.676C97.2554 126.543 97.0516 126.443 96.8276 126.376C96.6035 126.309 96.3699 126.276 96.1268 126.276C95.6834 126.276 95.2818 126.388 94.9219 126.612C94.5643 126.836 94.2795 127.166 94.0673 127.602C93.8576 128.038 93.7527 128.574 93.7527 129.208C93.7527 129.842 93.8576 130.377 94.0673 130.813C94.2795 131.249 94.5643 131.579 94.9219 131.803C95.2818 132.027 95.6834 132.14 96.1268 132.14C96.3699 132.14 96.6035 132.106 96.8276 132.039C97.0516 131.973 97.2554 131.874 97.439 131.743C97.6249 131.609 97.7822 131.446 97.9109 131.253C98.042 131.057 98.1338 130.833 98.1863 130.581H99.073C99.0062 130.955 98.8847 131.29 98.7083 131.585C98.5319 131.881 98.3126 132.132 98.0504 132.34C97.7882 132.545 97.4938 132.701 97.1673 132.808C96.8431 132.915 96.4963 132.969 96.1268 132.969C95.5023 132.969 94.9469 132.816 94.4606 132.511C93.9744 132.206 93.5918 131.772 93.3129 131.21C93.034 130.647 92.8946 129.98 92.8946 129.208C92.8946 128.435 93.034 127.768 93.3129 127.205C93.5918 126.643 93.9744 126.209 94.4606 125.904C94.9469 125.599 95.5023 125.446 96.1268 125.446C96.4963 125.446 96.8431 125.5 97.1673 125.607C97.4938 125.714 97.7882 125.872 98.0504 126.079C98.3126 126.284 98.5319 126.534 98.7083 126.83C98.8847 127.123 99.0062 127.458 99.073 127.835ZM101.813 132.869H100.883L103.572 125.546H104.487L107.176 132.869H106.247L104.058 126.705H104.001L101.813 132.869ZM102.156 130.009H105.903V130.795H102.156V130.009ZM109.324 132.869V125.546H111.798C112.37 125.546 112.84 125.644 113.207 125.84C113.574 126.033 113.845 126.298 114.022 126.637C114.198 126.975 114.286 127.36 114.286 127.792C114.286 128.223 114.198 128.606 114.022 128.939C113.845 129.273 113.575 129.535 113.21 129.726C112.845 129.914 112.379 130.009 111.812 130.009H109.81V129.208H111.784C112.174 129.208 112.489 129.15 112.727 129.036C112.968 128.922 113.142 128.76 113.249 128.55C113.359 128.338 113.414 128.085 113.414 127.792C113.414 127.499 113.359 127.242 113.249 127.023C113.14 126.804 112.965 126.634 112.724 126.515C112.483 126.394 112.165 126.333 111.769 126.333H110.21V132.869H109.324ZM112.77 129.579L114.572 132.869H113.543L111.769 129.579H112.77ZM119.03 132.869H116.771V125.546H119.131C119.841 125.546 120.449 125.693 120.954 125.986C121.459 126.277 121.847 126.695 122.116 127.241C122.385 127.785 122.52 128.435 122.52 129.193C122.52 129.956 122.384 130.613 122.113 131.163C121.841 131.712 121.445 132.134 120.925 132.429C120.406 132.722 119.774 132.869 119.03 132.869ZM117.658 132.082H118.973C119.579 132.082 120.08 131.966 120.479 131.732C120.877 131.498 121.173 131.166 121.369 130.734C121.564 130.303 121.662 129.789 121.662 129.193C121.662 128.602 121.565 128.093 121.372 127.667C121.179 127.238 120.891 126.909 120.507 126.68C120.123 126.449 119.645 126.333 119.073 126.333H117.658V132.082Z" fill="white"/>
<path d="M30.2969 151.203C30.2969 151.469 30.2465 151.719 30.1455 151.953C30.0446 152.187 29.9058 152.391 29.7291 152.566C29.5525 152.74 29.3471 152.879 29.1131 152.982C28.8791 153.085 28.629 153.137 28.3629 153.137C28.1013 153.137 27.857 153.085 27.6299 152.982C27.4027 152.879 27.2031 152.74 27.0311 152.566C26.859 152.391 26.7236 152.187 26.625 151.953C26.5263 151.719 26.477 151.469 26.477 151.203C26.477 150.941 26.5263 150.696 26.625 150.466C26.7236 150.237 26.859 150.037 27.0311 149.868C27.2031 149.698 27.4027 149.564 27.6299 149.465C27.857 149.366 28.1013 149.317 28.3629 149.317C28.629 149.317 28.8791 149.366 29.1131 149.465C29.3471 149.564 29.5525 149.698 29.7291 149.868C29.9058 150.037 30.0446 150.237 30.1455 150.466C30.2465 150.696 30.2969 150.941 30.2969 151.203ZM40.1654 151.203C40.1654 151.469 40.115 151.719 40.014 151.953C39.9131 152.187 39.7743 152.391 39.5976 152.566C39.421 152.74 39.2156 152.879 38.9816 152.982C38.7476 153.085 38.4975 153.137 38.2314 153.137C37.9698 153.137 37.7255 153.085 37.4984 152.982C37.2712 152.879 37.0716 152.74 36.8996 152.566C36.7275 152.391 36.5921 152.187 36.4935 151.953C36.3948 151.719 36.3455 151.469 36.3455 151.203C36.3455 150.941 36.3948 150.696 36.4935 150.466C36.5921 150.237 36.7275 150.037 36.8996 149.868C37.0716 149.698 37.2712 149.564 37.4984 149.465C37.7255 149.366 37.9698 149.317 38.2314 149.317C38.4975 149.317 38.7476 149.366 38.9816 149.465C39.2156 149.564 39.421 149.698 39.5976 149.868C39.7743 150.037 39.9131 150.237 40.014 150.466C40.115 150.696 40.1654 150.941 40.1654 151.203ZM50.0339 151.203C50.0339 151.469 49.9835 151.719 49.8825 151.953C49.7816 152.187 49.6428 152.391 49.4661 152.566C49.2895 152.74 49.0841 152.879 48.8501 152.982C48.6161 153.085 48.366 153.137 48.0999 153.137C47.8383 153.137 47.594 153.085 47.3669 152.982C47.1397 152.879 46.9401 152.74 46.7681 152.566C46.596 152.391 46.4606 152.187 46.362 151.953C46.2633 151.719 46.214 151.469 46.214 151.203C46.214 150.941 46.2633 150.696 46.362 150.466C46.4606 150.237 46.596 150.037 46.7681 149.868C46.9401 149.698 47.1397 149.564 47.3669 149.465C47.594 149.366 47.8383 149.317 48.0999 149.317C48.366 149.317 48.6161 149.366 48.8501 149.465C49.0841 149.564 49.2895 149.698 49.4661 149.868C49.6428 150.037 49.7816 150.237 49.8825 150.466C49.9835 150.696 50.0339 150.941 50.0339 151.203ZM59.9024 151.203C59.9024 151.469 59.852 151.719 59.751 151.953C59.6501 152.187 59.5113 152.391 59.3346 152.566C59.158 152.74 58.9526 152.879 58.7186 152.982C58.4846 153.085 58.2345 153.137 57.9684 153.137C57.7068 153.137 57.4625 153.085 57.2354 152.982C57.0082 152.879 56.8086 152.74 56.6366 152.566C56.4645 152.391 56.3291 152.187 56.2305 151.953C56.1318 151.719 56.0825 151.469 56.0825 151.203C56.0825 150.941 56.1318 150.696 56.2305 150.466C56.3291 150.237 56.4645 150.037 56.6366 149.868C56.8086 149.698 57.0082 149.564 57.2354 149.465C57.4625 149.366 57.7068 149.317 57.9684 149.317C58.2345 149.317 58.4846 149.366 58.7186 149.465C58.9526 149.564 59.158 149.698 59.3346 149.868C59.5113 150.037 59.6501 150.237 59.751 150.466C59.852 150.696 59.9024 150.941 59.9024 151.203ZM79.6395 151.203C79.6395 151.469 79.589 151.719 79.488 151.953C79.3871 152.187 79.2483 152.391 79.0716 152.566C78.895 152.74 78.6896 152.879 78.4556 152.982C78.2216 153.085 77.9715 153.137 77.7054 153.137C77.4439 153.137 77.1995 153.085 76.9724 152.982C76.7453 152.879 76.5457 152.74 76.3736 152.566C76.2015 152.391 76.0662 152.187 75.9675 151.953C75.8688 151.719 75.8195 151.469 75.8195 151.203C75.8195 150.941 75.8688 150.696 75.9675 150.466C76.0662 150.237 76.2015 150.037 76.3736 149.868C76.5457 149.698 76.7453 149.564 76.9724 149.465C77.1995 149.366 77.4439 149.317 77.7054 149.317C77.9715 149.317 78.2216 149.366 78.4556 149.465C78.6896 149.564 78.895 149.698 79.0716 149.868C79.2483 150.037 79.3871 150.237 79.488 150.466C79.589 150.696 79.6395 150.941 79.6395 151.203ZM89.508 151.203C89.508 151.469 89.4575 151.719 89.3565 151.953C89.2556 152.187 89.1168 152.391 88.9401 152.566C88.7635 152.74 88.5581 152.879 88.3241 152.982C88.0901 153.085 87.84 153.137 87.5739 153.137C87.3124 153.137 87.068 153.085 86.8409 152.982C86.6138 152.879 86.4142 152.74 86.2421 152.566C86.07 152.391 85.9347 152.187 85.836 151.953C85.7374 151.719 85.688 151.469 85.688 151.203C85.688 150.941 85.7374 150.696 85.836 150.466C85.9347 150.237 86.07 150.037 86.2421 149.868C86.4142 149.698 86.6138 149.564 86.8409 149.465C87.068 149.366 87.3124 149.317 87.5739 149.317C87.84 149.317 88.0901 149.366 88.3241 149.465C88.5581 149.564 88.7635 149.698 88.9401 149.868C89.1168 150.037 89.2556 150.237 89.3565 150.466C89.4575 150.696 89.508 150.941 89.508 151.203ZM99.3765 151.203C99.3765 151.469 99.326 151.719 99.225 151.953C99.1241 152.187 98.9853 152.391 98.8086 152.566C98.632 152.74 98.4266 152.879 98.1926 152.982C97.9586 153.085 97.7085 153.137 97.4424 153.137C97.1809 153.137 96.9365 153.085 96.7094 152.982C96.4823 152.879 96.2827 152.74 96.1106 152.566C95.9385 152.391 95.8032 152.187 95.7045 151.953C95.6059 151.719 95.5565 151.469 95.5565 151.203C95.5565 150.941 95.6059 150.696 95.7045 150.466C95.8032 150.237 95.9385 150.037 96.1106 149.868C96.2827 149.698 96.4823 149.564 96.7094 149.465C96.9365 149.366 97.1809 149.317 97.4424 149.317C97.7085 149.317 97.9586 149.366 98.1926 149.465C98.4266 149.564 98.632 149.698 98.8086 149.868C98.9853 150.037 99.1241 150.237 99.225 150.466C99.326 150.696 99.3765 150.941 99.3765 151.203ZM109.245 151.203C109.245 151.469 109.194 151.719 109.094 151.953C108.993 152.187 108.854 152.391 108.677 152.566C108.5 152.74 108.295 152.879 108.061 152.982C107.827 153.085 107.577 153.137 107.311 153.137C107.049 153.137 106.805 153.085 106.578 152.982C106.351 152.879 106.151 152.74 105.979 152.566C105.807 152.391 105.672 152.187 105.573 151.953C105.474 151.719 105.425 151.469 105.425 151.203C105.425 150.941 105.474 150.696 105.573 150.466C105.672 150.237 105.807 150.037 105.979 149.868C106.151 149.698 106.351 149.564 106.578 149.465C106.805 149.366 107.049 149.317 107.311 149.317C107.577 149.317 107.827 149.366 108.061 149.465C108.295 149.564 108.5 149.698 108.677 149.868C108.854 150.037 108.993 150.237 109.094 150.466C109.194 150.696 109.245 150.941 109.245 151.203ZM128.982 151.203C128.982 151.469 128.931 151.719 128.831 151.953C128.73 152.187 128.591 152.391 128.414 152.566C128.237 152.74 128.032 152.879 127.798 152.982C127.564 153.085 127.314 153.137 127.048 153.137C126.786 153.137 126.542 153.085 126.315 152.982C126.088 152.879 125.888 152.74 125.716 152.566C125.544 152.391 125.409 152.187 125.31 151.953C125.211 151.719 125.162 151.469 125.162 151.203C125.162 150.941 125.211 150.696 125.31 150.466C125.409 150.237 125.544 150.037 125.716 149.868C125.888 149.698 126.088 149.564 126.315 149.465C126.542 149.366 126.786 149.317 127.048 149.317C127.314 149.317 127.564 149.366 127.798 149.465C128.032 149.564 128.237 149.698 128.414 149.868C128.591 150.037 128.73 150.237 128.831 150.466C128.931 150.696 128.982 150.941 128.982 151.203ZM138.85 151.203C138.85 151.469 138.8 151.719 138.699 151.953C138.598 152.187 138.459 152.391 138.283 152.566C138.106 152.74 137.901 152.879 137.667 152.982C137.433 153.085 137.183 153.137 136.916 153.137C136.655 153.137 136.411 153.085 136.183 152.982C135.956 152.879 135.757 152.74 135.585 152.566C135.413 152.391 135.277 152.187 135.179 151.953C135.08 151.719 135.031 151.469 135.031 151.203C135.031 150.941 135.08 150.696 135.179 150.466C135.277 150.237 135.413 150.037 135.585 149.868C135.757 149.698 135.956 149.564 136.183 149.465C136.411 149.366 136.655 149.317 136.916 149.317C137.183 149.317 137.433 149.366 137.667 149.465C137.901 149.564 138.106 149.698 138.283 149.868C138.459 150.037 138.598 150.237 138.699 150.466C138.8 150.696 138.85 150.941 138.85 151.203ZM148.719 151.203C148.719 151.469 148.669 151.719 148.568 151.953C148.467 152.187 148.328 152.391 148.151 152.566C147.974 152.74 147.769 152.879 147.535 152.982C147.301 153.085 147.051 153.137 146.785 153.137C146.523 153.137 146.279 153.085 146.052 152.982C145.825 152.879 145.625 152.74 145.453 152.566C145.281 152.391 145.146 152.187 145.047 151.953C144.948 151.719 144.899 151.469 144.899 151.203C144.899 150.941 144.948 150.696 145.047 150.466C145.146 150.237 145.281 150.037 145.453 149.868C145.625 149.698 145.825 149.564 146.052 149.465C146.279 149.366 146.523 149.317 146.785 149.317C147.051 149.317 147.301 149.366 147.535 149.465C147.769 149.564 147.974 149.698 148.151 149.868C148.328 150.037 148.467 150.237 148.568 150.466C148.669 150.696 148.719 150.941 148.719 151.203ZM158.587 151.203C158.587 151.469 158.537 151.719 158.436 151.953C158.335 152.187 158.196 152.391 158.02 152.566C157.843 152.74 157.638 152.879 157.404 152.982C157.17 153.085 156.92 153.137 156.653 153.137C156.392 153.137 156.148 153.085 155.92 152.982C155.693 152.879 155.494 152.74 155.322 152.566C155.15 152.391 155.014 152.187 154.916 151.953C154.817 151.719 154.768 151.469 154.768 151.203C154.768 150.941 154.817 150.696 154.916 150.466C155.014 150.237 155.15 150.037 155.322 149.868C155.494 149.698 155.693 149.564 155.92 149.465C156.148 149.366 156.392 149.317 156.653 149.317C156.92 149.317 157.17 149.366 157.404 149.465C157.638 149.564 157.843 149.698 158.02 149.868C158.196 150.037 158.335 150.237 158.436 150.466C158.537 150.696 158.587 150.941 158.587 151.203ZM179.722 153.295C179.722 153.681 179.656 154.04 179.526 154.372C179.395 154.705 179.195 154.995 178.927 155.243C178.658 155.491 178.316 155.685 177.901 155.825C177.486 155.965 176.992 156.035 176.418 156.035C175.849 156.035 175.357 155.965 174.942 155.825C174.526 155.685 174.182 155.492 173.909 155.247C173.636 155.001 173.434 154.712 173.304 154.379C173.173 154.047 173.107 153.69 173.107 153.309C173.107 152.983 173.161 152.688 173.269 152.425C173.377 152.161 173.521 151.933 173.703 151.74C173.884 151.547 174.09 151.391 174.322 151.272C174.554 151.152 174.794 151.072 175.041 151.031V151.003C174.771 150.939 174.529 150.836 174.315 150.694C174.102 150.551 173.923 150.384 173.778 150.191C173.634 149.998 173.524 149.787 173.448 149.558C173.372 149.329 173.334 149.092 173.334 148.849C173.334 148.537 173.4 148.238 173.531 147.951C173.661 147.664 173.855 147.411 174.112 147.19C174.369 146.97 174.688 146.795 175.069 146.664C175.45 146.533 175.89 146.468 176.39 146.468C176.918 146.468 177.376 146.534 177.764 146.667C178.151 146.8 178.472 146.977 178.727 147.197C178.982 147.417 179.171 147.672 179.295 147.961C179.419 148.25 179.481 148.551 179.481 148.863C179.481 149.101 179.443 149.335 179.367 149.565C179.292 149.794 179.181 150.005 179.037 150.198C178.892 150.391 178.713 150.557 178.5 150.697C178.287 150.837 178.04 150.935 177.76 150.99V151.017C178.04 151.063 178.299 151.147 178.538 151.268C178.776 151.39 178.984 151.547 179.161 151.74C179.337 151.933 179.475 152.158 179.574 152.418C179.672 152.677 179.722 152.97 179.722 153.295ZM178.194 148.932C178.194 148.716 178.163 148.514 178.101 148.326C178.039 148.138 177.937 147.975 177.795 147.837C177.652 147.7 177.466 147.591 177.237 147.51C177.008 147.43 176.725 147.39 176.39 147.39C176.069 147.39 175.795 147.43 175.568 147.51C175.341 147.591 175.155 147.7 175.01 147.837C174.866 147.975 174.762 148.138 174.697 148.326C174.633 148.514 174.601 148.716 174.601 148.932C174.601 149.101 174.626 149.28 174.677 149.468C174.727 149.657 174.819 149.83 174.952 149.988C175.085 150.146 175.269 150.277 175.503 150.38C175.737 150.484 176.037 150.535 176.404 150.535C176.799 150.535 177.113 150.483 177.347 150.377C177.581 150.271 177.761 150.14 177.887 149.981C178.014 149.823 178.096 149.65 178.135 149.462C178.174 149.273 178.194 149.097 178.194 148.932ZM178.435 153.178C178.435 152.972 178.402 152.766 178.338 152.562C178.274 152.358 178.164 152.175 178.008 152.012C177.852 151.849 177.642 151.717 177.378 151.616C177.114 151.515 176.785 151.464 176.39 151.464C176.028 151.464 175.719 151.515 175.465 151.616C175.21 151.717 175.004 151.85 174.845 152.015C174.687 152.18 174.571 152.366 174.498 152.573C174.424 152.779 174.388 152.99 174.388 153.206C174.388 153.477 174.424 153.728 174.498 153.959C174.571 154.191 174.688 154.392 174.849 154.562C175.009 154.731 175.22 154.865 175.482 154.961C175.743 155.057 176.06 155.105 176.432 155.105C176.813 155.105 177.13 155.058 177.385 154.964C177.64 154.87 177.845 154.737 178.001 154.565C178.157 154.393 178.268 154.189 178.335 153.953C178.401 153.716 178.435 153.458 178.435 153.178ZM189.59 153.295C189.59 153.681 189.525 154.04 189.394 154.372C189.263 154.705 189.064 154.995 188.795 155.243C188.527 155.491 188.185 155.685 187.77 155.825C187.354 155.965 186.86 156.035 186.286 156.035C185.717 156.035 185.225 155.965 184.81 155.825C184.395 155.685 184.051 155.492 183.778 155.247C183.505 155.001 183.303 154.712 183.172 154.379C183.041 154.047 182.976 153.69 182.976 153.309C182.976 152.983 183.03 152.688 183.138 152.425C183.245 152.161 183.39 151.933 183.571 151.74C183.752 151.547 183.959 151.391 184.191 151.272C184.422 151.152 184.662 151.072 184.91 151.031V151.003C184.639 150.939 184.397 150.836 184.184 150.694C183.97 150.551 183.791 150.384 183.647 150.191C183.502 149.998 183.392 149.787 183.317 149.558C183.241 149.329 183.203 149.092 183.203 148.849C183.203 148.537 183.268 148.238 183.399 147.951C183.53 147.664 183.724 147.411 183.981 147.19C184.238 146.97 184.557 146.795 184.937 146.664C185.318 146.533 185.759 146.468 186.259 146.468C186.787 146.468 187.244 146.534 187.632 146.667C188.02 146.8 188.341 146.977 188.596 147.197C188.85 147.417 189.04 147.672 189.163 147.961C189.287 148.25 189.349 148.551 189.349 148.863C189.349 149.101 189.311 149.335 189.236 149.565C189.16 149.794 189.05 150.005 188.905 150.198C188.761 150.391 188.582 150.557 188.368 150.697C188.155 150.837 187.908 150.935 187.629 150.99V151.017C187.908 151.063 188.168 151.147 188.406 151.268C188.645 151.39 188.853 151.547 189.029 151.74C189.206 151.933 189.344 152.158 189.442 152.418C189.541 152.677 189.59 152.97 189.59 153.295ZM188.062 148.932C188.062 148.716 188.031 148.514 187.969 148.326C187.907 148.138 187.805 147.975 187.663 147.837C187.521 147.7 187.335 147.591 187.105 147.51C186.876 147.43 186.594 147.39 186.259 147.39C185.938 147.39 185.664 147.43 185.436 147.51C185.209 147.591 185.023 147.7 184.879 147.837C184.734 147.975 184.63 148.138 184.566 148.326C184.502 148.514 184.469 148.716 184.469 148.932C184.469 149.101 184.495 149.28 184.545 149.468C184.596 149.657 184.687 149.83 184.82 149.988C184.953 150.146 185.137 150.277 185.371 150.38C185.605 150.484 185.906 150.535 186.273 150.535C186.667 150.535 186.982 150.483 187.216 150.377C187.45 150.271 187.63 150.14 187.756 149.981C187.882 149.823 187.965 149.65 188.004 149.462C188.043 149.273 188.062 149.097 188.062 148.932ZM188.303 153.178C188.303 152.972 188.271 152.766 188.207 152.562C188.143 152.358 188.032 152.175 187.876 152.012C187.72 151.849 187.51 151.717 187.247 151.616C186.983 151.515 186.654 151.464 186.259 151.464C185.896 151.464 185.588 151.515 185.333 151.616C185.079 151.717 184.872 151.85 184.714 152.015C184.555 152.18 184.44 152.366 184.366 152.573C184.293 152.779 184.256 152.99 184.256 153.206C184.256 153.477 184.293 153.728 184.366 153.959C184.44 154.191 184.557 154.392 184.717 154.562C184.878 154.731 185.089 154.865 185.35 154.961C185.612 155.057 185.929 155.105 186.3 155.105C186.681 155.105 186.999 155.058 187.253 154.964C187.508 154.87 187.713 154.737 187.869 154.565C188.025 154.393 188.137 154.189 188.203 153.953C188.27 153.716 188.303 153.458 188.303 153.178ZM198.378 153.701V155.897H197.139V153.701H192.638V152.738L197.008 146.612H198.378V152.724H199.672V153.701H198.378ZM197.139 147.954L193.698 152.724H197.139V147.954ZM202.789 155.897V155.092C202.99 154.647 203.257 154.236 203.587 153.86C203.917 153.483 204.27 153.129 204.643 152.796C205.017 152.464 205.394 152.146 205.772 151.843C206.151 151.54 206.493 151.241 206.798 150.945C207.103 150.649 207.352 150.348 207.545 150.043C207.737 149.738 207.834 149.416 207.834 149.076C207.834 148.801 207.789 148.563 207.699 148.364C207.61 148.164 207.484 147.999 207.321 147.868C207.158 147.737 206.965 147.641 206.743 147.579C206.52 147.517 206.274 147.486 206.003 147.486C205.755 147.486 205.524 147.521 205.311 147.589C205.098 147.658 204.911 147.762 204.75 147.899C204.59 148.037 204.459 148.208 204.358 148.412C204.257 148.616 204.19 148.854 204.158 149.124L202.892 149.007C202.933 148.659 203.027 148.331 203.174 148.023C203.321 147.716 203.522 147.446 203.776 147.214C204.031 146.983 204.344 146.8 204.716 146.667C205.087 146.534 205.516 146.468 206.003 146.468C206.485 146.468 206.917 146.523 207.3 146.633C207.683 146.743 208.009 146.905 208.278 147.118C208.546 147.331 208.751 147.596 208.894 147.913C209.036 148.23 209.107 148.592 209.107 149C209.107 149.432 209.008 149.832 208.811 150.201C208.614 150.571 208.36 150.921 208.05 151.251C207.741 151.581 207.398 151.896 207.021 152.194C206.645 152.492 206.278 152.788 205.92 153.082C205.562 153.376 205.237 153.67 204.943 153.966C204.649 154.262 204.429 154.571 204.282 154.892H209.258V155.897H202.789Z" fill="white"/>
<defs>
<linearGradient id="paint0_linear_715_1455" x1="62.921" y1="-39.8181" x2="262.484" y2="186.014" gradientUnits="userSpaceOnUse">
<stop stop-color="#CA3C0B"/>
<stop offset="1" stop-color="#FE7040"/>
</linearGradient>
</defs>
</svg>
